<svg width="33" height="37" viewBox="0 0 33 37" fill="none" xmlns="http://www.w3.org/2000/svg">
<path d="M14.5455 36.7273C11.197 36.7273 8.43182 35.9848 6.25 34.5C4.06818 33 2.54545 30.9091 1.68182 28.2273C0.818182 25.5303 0.681818 22.3939 1.27273 18.8182C1.86364 15.2424 3.03788 12.0909 4.79545 9.36364C6.55303 6.62121 8.74242 4.48485 11.3636 2.95454C13.9848 1.40909 16.8636 0.636364 20 0.636364C21.8182 0.636364 23.5682 0.939393 25.25 1.54545C26.9318 2.15151 28.3864 3.13636 29.6136 4.5C30.8409 5.84848 31.697 7.63636 32.1818 9.86364C32.6667 12.0909 32.6364 14.8333 32.0909 18.0909L31.7273 20.3636H4.81818L5.54545 15.7273H27C27.3485 13.7576 27.2576 12 26.7273 10.4545C26.2121 8.90909 25.3106 7.68939 24.0227 6.79545C22.75 5.90151 21.1364 5.45454 19.1818 5.45454C17.1667 5.45454 15.2879 6 13.5455 7.09091C11.803 8.16667 10.3485 9.5303 9.18182 11.1818C8.01515 12.8182 7.28788 14.4848 7 16.1818L6.36364 20.1818C5.90909 23.0758 5.97727 25.3788 6.56818 27.0909C7.17424 28.803 8.22727 30.0379 9.72727 30.7955C11.2273 31.5379 13.1061 31.9091 15.3636 31.9091C16.803 31.9091 18.1288 31.7121 19.3409 31.3182C20.553 30.9091 21.6364 30.303 22.5909 29.5C23.5455 28.6818 24.3485 27.6667 25 26.4545L29.9091 27.9091C29.0758 29.6667 27.9015 31.2121 26.3864 32.5455C24.8864 33.8636 23.1288 34.8939 21.1136 35.6364C19.1136 36.3636 16.9242 36.7273 14.5455 36.7273Z" fill="#088CEC"/>
</svg>
